<svg id="Capa_1" enable-background="new 0 0 512 512" height="512" viewBox="0 0 512 512" width="512" xmlns="http://www.w3.org/2000/svg"><g><path d="m90.667 6.4h330.667c50.133 0 90.666 40.533 90.666 90.667v317.867c0 50.133-40.533 90.667-90.667 90.667h-330.666c-50.134-.001-90.667-40.534-90.667-90.668v-317.866c0-50.134 40.533-90.667 90.667-90.667z" fill="#001834"/><g fill="#00a9ff"><path d="m179.627 359.253h-121.814c-2.133 0-2.987-1.28-2.987-3.84v-218.026c0-2.133.853-2.987 2.773-2.987h37.76c1.493 0 2.133.853 2.133 2.347v179.2h88.747c1.92 0 2.56 1.067 2.133 2.987l-5.547 37.12c-.213 1.28-.64 2.133-1.28 2.56-.638.426-1.278.639-1.918.639z"/><path d="m210.133 188.587h33.707c1.92 0 3.2 1.067 4.053 3.413.64 1.493 1.28 3.2 1.493 4.907.427 2.133.64 4.48.853 6.613.213 2.347.213 4.907.213 7.68 5.547-7.253 12.587-13.653 20.48-18.347 8.533-5.12 18.56-7.893 28.587-7.68 1.92 0 2.773 1.067 2.773 2.987v41.6c0 1.707-1.067 2.347-2.987 2.347-6.827-.427-13.653 0-20.267 1.493-5.547 1.28-10.88 3.2-16 5.76-3.84 1.92-7.467 4.693-10.453 7.893v108.8c0 2.133-.853 2.987-2.56 2.987h-37.12c-2.133 0-2.987-1.067-2.987-3.413v-118.187c0-5.12 0-10.453-.213-16 0-5.547-.213-11.093-.427-16.64-.213-4.693-.64-9.387-1.28-14.08 0-.64 0-1.28.427-1.92.642-.213 1.068-.427 1.708-.213z"/><path d="m453.547 157.013c-4.48-1.92-9.387-2.987-14.293-3.627-7.253-.853-14.507-1.28-21.76-1.28-20.907 0-39.253 4.48-54.4 13.227s-27.307 21.76-35.413 37.333c-8.32 15.787-12.373 34.56-12.373 55.467-.213 12.587 1.493 25.173 4.693 37.547 2.987 10.453 7.467 20.267 13.653 29.227 5.76 8.32 12.8 15.36 20.907 21.12s17.28 10.24 27.093 12.8c10.027 2.773 20.693 4.267 31.147 4.267 7.467 0 14.72-.427 21.973-1.493 5.973-.64 11.733-2.133 17.28-4.267 2.133-1.067 3.413-3.2 3.2-5.76v-31.787c.213-1.067-.213-2.347-1.067-3.2-.64-.427-1.707-1.067-3.413.213-4.693 1.707-9.813 2.987-14.933 3.627-23.255 2.907-49.986-.349-64.853-20.693-15.917-21.781-16.829-53.377-5.76-77.44 12.72-27.653 44.104-33.144 71.254-28.801 5.333.853 10.453 2.56 15.36 5.12.853.427 1.92.427 2.773 0 .853-.853 1.493-1.92 1.28-3.2v-33.28c.212-2.133-.642-4.053-2.348-5.12z"/></g></g></svg>